<?xml version="1.0" encoding="utf-8"?>
<!-- Generator: Adobe Illustrator 19.0.0, SVG Export Plug-In . SVG Version: 6.00 Build 0)  -->
<svg version="1.1" id="Capa_1" xmlns="http://www.w3.org/2000/svg" xmlns:xlink="http://www.w3.org/1999/xlink" x="0px" y="0px"
	 viewBox="-49 141 512 512" style="enable-background:new -49 141 512 512;" xml:space="preserve">
<style type="text/css">
	.st0{fill:#FFBD51;}
	.st1{fill:#FFE451;}
	.st2{fill:#4C5B66;}
</style>
<g>
	<path class="st0" d="M446,232.6c4.1,4,6.3,9.4,6.3,15v298.7c0,5.7-2.2,11.1-6.3,15l-47-47L261.2,376.5L441.7,237L446,232.6z"/>
	<path class="st0" d="M15,514.3l-46.9,46.9l-0.1,0.1c-4.1-4-6.3-9.4-6.3-15V247.7c0-4.3,1.2-8.4,3.6-11.9l7,1.3l180.5,139.5
		L15,514.3z"/>
</g>
<g>
	<path class="st1" d="M-31.9,561.3L15,514.3l137.8-137.8l54.2,41.8l54.2-41.8L399,514.3l47,47c-4,4.1-9.4,6.3-15,6.3H-17
		c-5.7,0-11.1-2.2-15-6.3L-31.9,561.3z"/>
	<path class="st1" d="M431,226.3c5.7,0,11.1,2.2,15,6.3l-4.4,4.4L261.2,376.5L207,418.3l-54.2-41.8L-27.7,237l-7-1.3
		c4-5.9,10.6-9.4,17.7-9.4H431z"/>
</g>
<path class="st2" d="M453.7,225.2c-6-6.1-14.1-9.6-22.7-9.5H-17c-10.6,0-20.6,5.3-26.5,14c-3.6,5.3-5.5,11.6-5.5,18v298.7
	c-0.1,8.4,3.3,16.6,9.3,22.5c6,6.1,14.1,9.6,22.7,9.5h448c17.6-0.1,31.9-14.4,32-32V247.7C463.1,239.2,459.7,231.1,453.7,225.2z
	 M207,404.9L-10.2,237h434.5L207,404.9z M438.4,553.9c-1.9,2-4.6,3.1-7.4,3.1H-17c-2.9,0-5.6-1.2-7.6-3.3c-2-2-3.1-4.6-3.1-7.4
	V250.5l164.4,127L7.5,506.8l15.1,15.1l131.2-131.2l46.7,36.1c3.8,3,9.2,3,13,0l46.7-36.1l131.2,131.2l15.1-15.1L277.2,377.5
	l164.4-127v295.9C441.7,549.2,440.5,552,438.4,553.9L438.4,553.9z"/>
</svg>
